<?xml version="1.0" encoding="UTF-8" standalone="no"?>
<!-- Created with Inkscape (http://www.inkscape.org/) -->

<svg
   xmlns:dc="http://purl.org/dc/elements/1.1/"
   xmlns:cc="http://creativecommons.org/ns#"
   xmlns:rdf="http://www.w3.org/1999/02/22-rdf-syntax-ns#"
   xmlns:svg="http://www.w3.org/2000/svg"
   xmlns="http://www.w3.org/2000/svg"
   xmlns:sodipodi="http://sodipodi.sourceforge.net/DTD/sodipodi-0.dtd"
   xmlns:inkscape="http://www.inkscape.org/namespaces/inkscape"
   width="79.378036mm"
   height="39.052872mm"
   viewBox="0 0 281.26076 138.37632"
   id="svg2"
   version="1.1"
   inkscape:version="0.91 r13725"
   sodipodi:docname="spencer_logo_bright.svg">
  <defs
     id="defs4" />
  <sodipodi:namedview
     id="base"
     pagecolor="#ffffff"
     bordercolor="#666666"
     borderopacity="1.0"
     inkscape:pageopacity="0.0"
     inkscape:pageshadow="2"
     inkscape:zoom="1.979899"
     inkscape:cx="56.946597"
     inkscape:cy="23.154147"
     inkscape:document-units="px"
     inkscape:current-layer="layer1"
     showgrid="false"
     inkscape:window-width="2560"
     inkscape:window-height="1391"
     inkscape:window-x="0"
     inkscape:window-y="1"
     inkscape:window-maximized="1"
     fit-margin-top="0"
     fit-margin-left="0"
     fit-margin-right="0"
     fit-margin-bottom="0" />
  <metadata
     id="metadata7">
    <rdf:RDF>
      <cc:Work
         rdf:about="">
        <dc:format>image/svg+xml</dc:format>
        <dc:type
           rdf:resource="http://purl.org/dc/dcmitype/StillImage" />
        <dc:title />
      </cc:Work>
    </rdf:RDF>
  </metadata>
  <g
     inkscape:label="Layer 1"
     inkscape:groupmode="layer"
     id="layer1"
     transform="translate(-8.3834886,-5.4598031)">
    <rect
       ry="15.836927"
       transform="matrix(0.99403165,0.10909211,-0.10909211,0.99403165,0,0)"
       style="fill:none;fill-rule:evenodd;stroke:#c83737;stroke-width:1.00000012;stroke-miterlimit:4;stroke-dasharray:none;stroke-opacity:1"
       y="11.540233"
       x="24.729481"
       height="112.11067"
       width="112.11067"
       id="rect3466" />
    <path
       style="fill:#c83737;fill-opacity:1"
       d="m 43.925503,5.4623355 c -7.37675,-0.13203 -14.03719,4.9102795 -15.70313,12.4042895 l -17.45507,78.51954 c -1.9039301,8.564585 3.45885,16.992555 12.02343,18.896485 l 76.72266,17.05469 0,-76.224615 c 0,-1.5 0.749997,-2 4.374997,-2 10.75,0 19.5,13.25 19.5,29.5 0,16.500005 -8.875,29.750005 -19.75,29.500005 l 0,19.94726 c 7.71422,0.55881 14.83774,-4.56072 16.56836,-12.3457 l 17.45508,-78.519535 c 1.90392,-8.56459 -3.45885,-16.99256 -12.02344,-18.89649 L 47.118863,5.8431955 c -1.07057,-0.23799 -2.13954,-0.362 -3.19336,-0.38086 z M 103.63839,133.05999 c -0.77252,-0.056 -1.54852,-0.14895 -2.32813,-0.32226 l -1.796867,-0.40039 0,8.27539 c 0,1 0.874997,1.75 2.124997,1.75 1,0 2,-0.75 2,-1.75 l 0,-7.55274 z M 68.554413,24.237725 c 3.75,0 7.25,1.125 10.125,3.375 0.25,0.25 4.875,3.75 5.25,12.125 0,0.125 0,1.5 -1.625,1.75 -2.125,0 -2.25,-1.5 -2.25,-1.625 -0.5,-6.25 -3.625,-8.875 -3.875,-9 -2.25,-1.625 -4.75,-2.625 -7.625,-2.625 -7.375,0 -13.5,6.75 -13.5,15 0,17.875 34.5,16.125 34.5,42.375 0,16.500005 -9.125,27.250005 -23.25,27.250005 -9.875,0 -20.25,-9.125 -20.25,-19.125005 0,-6.75 4.25,-11.625 9.875,-11.625 4.625,0 9.125,4 9.125,10.125 0,3.5 -2.375,7.125 -6.125,7.125 -2.875,0 -4.875,-2.625 -4.875,-5.75 0,-2 0.625,-3.25 2.125,-3.25 1.125,0 2.25,0.75 2.25,1.875 0,0.375 -0.25,0.875 -0.25,1.25 0,0.75 0.5,1.125 1.125,1.125 1.25,0 1.875,-1.625 1.875,-3.625 -0.375,-2.875 -2.75,-4.625 -5.25,-4.625 -3.375,0 -6,3.375 -6,7 0,8.625005 9.25,15.375005 16.375,15.375005 14.125,0 19.125,-12.000005 19.125,-23.125005 0,-23.625 -34.5,-19.875 -34.5,-42.5 0,-10.5 7.875,-18.875 17.625,-18.875 z m 147.255847,29.625 c -8.25,0 -12.625,15.125 -12.625,29.375 0,14.5 4.375,29.500005 12.625,29.500005 5.125,0 9.5,-6 11.625,-16.125005 0,0 0,-1.875 -2.25,-1.875 -1.125,0 -1.625,1.125 -1.625,1.125 -1.875,8.875005 -5.25,13.000005 -7.75,13.000005 -4,0 -8.75,-10.875005 -8.75,-25.625005 0,-14.625 4.75,-25.5 8.75,-25.5 2.625,0 5.5,4.125 7.125,10.625 0,0 0.5,1 1.875,1 1.625,0 1.875,-1.125 1.875,-1.625 l 0,-0.5 c -2.25,-8.625 -6.125,-13.375 -10.875,-13.375 z m -71.39062,0.25 c -7.625,0 -13.5,12.875 -13.5,29.5 0,17.125005 6.125,29.125005 14,29.125005 10.875,0 11.25,-14.875005 11.25,-16.375005 -0.125,-1.25 -1.125,-2 -2.125,-2 -0.75,0 -1.5,0.625 -1.5,1.625 l 0,0.375 c 0,1.625 -0.75,12.250005 -8.125,12.250005 -5,0 -9.625,-11.000005 -9.625,-26.125005 l 22.625,0 -0.125,-4.625 c -0.375,-15 -6.125,-23.75 -12.875,-23.75 z m 102.7832,0 c -7.625,0 -13.5,12.875 -13.5,29.5 0,17.125005 6.125,29.125005 14,29.125005 10.875,0 11.25,-14.875005 11.25,-16.375005 -0.125,-1.25 -1.125,-2 -2.125,-2 -0.75,0 -1.5,0.625 -1.5,1.625 l 0,0.375 c 0,1.625 -0.75,12.250005 -8.125,12.250005 -5,0 -9.625,-11.000005 -9.625,-26.125005 l 22.625,0 -0.125,-4.625 c -0.375,-15 -6.125,-23.75 -12.875,-23.75 z m 24.56641,0.5 c -1,0 -1.875,0.75 -1.875,1.875 l 0,19.625 0,33.750005 c 0,1 0.875,1.875 1.875,1.875 l 0.125,0 c 1,0 1.75,-0.875 1.75,-1.875 l 0,-32.500005 c 0,-5.875 4.75,-18.625 14.5,-18.625 l 1.125,0 c 0.625,0 2.375,-0.125 2.375,-2.125 0,-2.375 -3.875,-1.75 -3.625,-1.75 -4,0 -7.5,1.375 -10.375,4.125 -1.5,1.375 -2.875,3.25 -4,5 l 0,-7.5 c 0,-1.125 -0.75,-1.875 -1.75,-1.875 l -0.125,0 z m -102.7832,0.25 c -1.125,0 -1.875,0.75 -1.875,1.875 l 0,53.875005 c 0,1 0.75,1.875 1.875,1.875 l 0.125,0 c 0.875,0 1.75,-0.875 1.75,-1.875 l 0,-43.000005 c 0,-4.875 4.25,-8.75 9.25,-8.75 5.125,0 9,3.875 9,8.75 l 0,43.750005 c 0,1 0.75,1.75 1.875,1.75 l 0.125,0 c 1,0 1.875,-0.75 1.875,-1.75 l 0,-44.125005 0,-0.25 c -0.25,-6.625 -5.75,-12.125 -12.875,-12.125 -3.625,0 -6.75,1.5 -9.25,3.875 l 0,-2 c 0,-1.125 -0.875,-1.875 -1.75,-1.875 l -0.125,0 z m -65.34766,3.125 0,51.125005 c 0,0.125 0.125,0.125 0.25,0.125 8.625,0 15.5,-11.500005 15.5,-25.625005 0,-14 -7.125,-25.875 -15.75,-25.625 z m 40.78125,0.75 c 4,0 8.125,6.875 8.875,19.125 l -18.125,0 c 1,-11.5 5.25,-19.125 9.25,-19.125 z m 102.7832,0 c 4,0 8.125,6.875 8.875,19.125 l -18.125,0 c 1,-11.5 5.25,-19.125 9.25,-19.125 z"
       id="rect3359"
       inkscape:connector-curvature="0" />
    <rect
       id="rect4240"
       width="112.11067"
       height="112.11067"
       x="17.192617"
       y="25.664589"
       style="fill:none;fill-rule:evenodd;stroke:#c83737;stroke-width:1.00000012;stroke-miterlimit:4;stroke-dasharray:none;stroke-opacity:0.39215686"
       transform="matrix(0.99999239,0.00390206,-0.00390206,0.99999239,0,0)"
       ry="15.836927" />
  </g>
</svg>
